<svg width="4324" height="2164" viewBox="0 0 4324 2164" fill="none" xmlns="http://www.w3.org/2000/svg">
<rect width="4324" height="2164" fill="white"/>
<path d="M1140.18 75.6439C1133.54 78.2939 1133.21 79.619 1136.2 86.9066C1139.85 94.5256 1150.14 100.157 1153.79 96.1819C1154.79 95.1881 1155.78 89.5567 1155.78 83.2628C1155.78 71.6688 1153.13 70.3437 1140.18 75.6439Z" fill="url(#paint0_linear_105_36)"/>
<path d="M1008.7 80.9449C1003.39 83.595 996.419 88.8951 992.767 92.5389C986.458 98.8328 986.458 98.8328 995.091 98.8328C1005.72 98.8328 1026.96 86.245 1025.3 81.2762C1023.64 75.6448 1018.66 75.6448 1008.7 80.9449Z" fill="url(#paint1_linear_105_36)"/>
<path d="M1078.42 77.9625C1073.44 82.9314 1077.1 85.5814 1094.36 90.5503C1107.97 94.5254 1113.95 95.1879 1119.26 92.2066C1128.56 87.2377 1125.57 83.9252 1107.97 79.2875C1091.04 74.9812 1081.41 74.6499 1078.42 77.9625Z" fill="url(#paint2_linear_105_36)"/>
<path d="M1028.62 140.902C1027.3 141.896 1026.3 145.871 1026.3 149.184C1026.3 155.809 1022.65 156.803 1017.33 151.503C1015.34 149.515 1012.02 148.853 1010.03 150.178C1007.71 151.503 1010.03 155.809 1016.34 162.103C1026.96 173.034 1030.62 173.034 1053.19 161.44C1061.16 157.465 1065.81 152.496 1066.8 146.865C1068.46 138.915 1068.13 138.584 1049.54 138.584C1039.25 138.584 1029.62 139.577 1028.62 140.902Z" fill="url(#paint3_linear_105_36)"/>
<path d="M1655.46 35.5611C1639.2 36.5549 1622.59 39.2049 1618.94 41.1925C1615.29 43.18 1589.06 45.8301 1560.84 46.8238C1514.03 48.4801 1435.34 57.4241 1431.36 61.7305C1430.36 62.393 1431.69 64.0493 1434.01 64.7118C1438.33 66.3681 1439.66 75.6433 1435.67 75.6433C1434.01 75.9745 1416.75 77.9621 1396.83 80.2809C1358.31 85.2498 1350.01 89.5561 1361.3 99.1626C1367.28 104.131 1377.24 106.45 1425.71 115.063C1458.58 121.026 1472.53 136.595 1459.58 153.82C1452.27 163.758 1453.6 167.07 1467.21 170.714L1479.5 174.027L1465.55 176.677C1454.26 178.664 1451.28 180.652 1451.28 185.952C1451.28 191.584 1452.94 192.246 1462.56 190.59C1471.86 189.265 1473.85 189.596 1472.19 193.571C1471.2 196.221 1467.21 198.209 1462.9 198.209C1458.25 198.209 1451.94 202.515 1446.63 209.471C1438.66 219.74 1438 223.716 1438 250.547C1438 283.673 1445.3 313.486 1453.93 316.136C1456.92 317.13 1465.88 320.774 1473.52 324.418C1492.78 334.024 1504.73 330.712 1518.67 312.824C1524.65 304.874 1538.93 288.311 1550.22 276.054L1570.8 253.529L1603.34 246.241C1626.91 240.941 1640.86 235.641 1653.8 227.028C1671.4 215.434 1746.1 189.927 1768.35 187.608C1777.64 186.615 1778.31 185.621 1779.3 172.702C1780.3 157.795 1787.27 149.845 1810.18 137.589C1818.15 132.951 1819.81 130.632 1816.82 128.645C1810.85 125.332 1814.83 108.769 1821.47 108.769C1829.11 108.769 1830.43 102.806 1824.79 92.5374C1819.15 81.2747 1819.81 80.6122 1843.05 73.6558C1852.01 71.0057 1868.95 64.3805 1880.24 58.7491L1901.15 48.8114L1877.91 50.7989C1865.3 51.7927 1851.35 53.449 1847.37 54.4428C1843.38 55.1053 1839.07 53.7803 1837.41 51.1302C1836.08 48.8114 1820.81 43.5113 1803.87 39.5362C1771.67 32.2485 1726.51 31.2547 1655.46 35.5611Z" fill="url(#paint4_linear_105_36)"/>
<path d="M1335.07 42.8501C1307.85 47.819 1222.19 55.7692 1217.21 53.7816C1214.22 52.4566 1205.92 55.7692 1198.28 61.0693C1188.99 67.6945 1184.01 69.3508 1183.34 66.3694C1180.35 58.088 1175.71 62.7256 1175.71 73.6571C1175.71 88.2324 1185.67 96.1826 1199.94 93.2013C1219.2 89.2262 1205.92 98.5014 1182.01 105.458C1161.1 111.752 1157.78 112.083 1153.13 107.445C1149.81 104.795 1141.51 102.145 1134.2 101.483C1121.92 100.489 1120.92 101.152 1119.26 110.427C1117.94 118.708 1115.94 120.364 1107.64 120.364C1100.34 120.364 1098.01 119.039 1098.68 114.733C1099.67 108.439 1098.01 107.114 1083.74 104.133C1074.11 101.814 1072.78 102.808 1067.8 112.083C1064.81 118.046 1062.82 123.346 1063.82 124.008C1064.48 125.002 1078.43 126.99 1094.69 128.977L1124.24 132.29L1131.22 123.346C1138.19 114.733 1147.15 114.733 1143.83 123.015C1141.18 130.302 1180.02 135.934 1203.26 132.29C1213.89 130.302 1226.84 129.64 1231.48 130.633C1241.11 132.621 1255.72 124.34 1251.07 119.702C1249.41 118.377 1233.48 117.052 1215.55 117.052C1183.34 117.052 1183.01 117.052 1191.97 111.089C1198.95 106.12 1206.25 105.458 1230.49 106.12C1247.09 106.452 1262.03 105.789 1264.35 104.464C1266.35 103.139 1270.33 103.139 1273.32 104.133C1275.97 105.127 1292.91 99.164 1310.83 90.5513C1343.37 74.9821 1369.93 66.3694 1413.09 57.4255C1470.87 45.8314 1477.84 44.1752 1477.84 42.5189C1477.84 39.5375 1351.01 39.8688 1335.07 42.8501Z" fill="url(#paint5_linear_105_36)"/>
<path d="M916.734 99.4932C903.122 103.137 886.189 106.781 879.549 107.775C864.276 109.762 866.269 115.394 882.205 115.394C889.177 115.394 896.15 118.044 900.134 122.019C903.786 125.663 909.762 128.644 913.082 128.644C916.734 128.644 924.039 131.294 929.351 134.275C938.979 139.907 940.307 139.907 955.58 134.275C964.212 131.294 980.149 128.644 990.441 128.644C1004.05 128.644 1010.69 126.988 1015.01 122.681C1020.65 117.381 1020.65 117.05 1015.01 116.056C1011.69 115.394 1010.03 112.744 1011.03 110.093C1013.68 103.468 1005.38 104.462 991.437 112.412C979.153 119.7 974.505 119.7 951.928 111.087C944.624 108.437 940.639 105.456 942.963 104.131C946.948 101.481 947.944 92.2056 944.292 92.5368C942.631 92.5368 930.347 95.8494 916.734 99.4932Z" fill="url(#paint6_linear_105_36)"/>
<path d="M2932.05 98.5004C2927.4 99.8255 2923.75 102.476 2923.75 104.794C2923.75 112.082 2914.45 115.395 2893.54 115.395C2872.29 115.395 2821.16 123.676 2812.53 128.645C2808.21 131.295 2808.21 131.957 2813.52 133.614C2825.81 138.583 2817.84 141.895 2793.6 141.895L2767.7 142.227L2779.32 151.833C2785.63 157.464 2794.6 161.771 2799.25 161.771C2806.88 162.102 2806.88 162.433 2801.24 165.746C2796.59 168.396 2792.27 168.065 2783.64 163.758C2772.68 158.458 2749.11 156.471 2745.13 160.446C2741.48 164.421 2746.79 171.708 2753.76 171.708C2758.74 171.708 2759.74 172.702 2757.08 175.352C2750.77 181.646 2739.82 175.021 2732.84 161.439C2729.19 154.152 2723.55 148.52 2720.56 148.52C2715.91 148.52 2716.24 149.845 2722.55 156.471C2728.86 163.096 2729.19 164.421 2724.87 166.077C2717.24 169.058 2718.57 176.346 2727.2 179.99C2731.18 181.977 2734.83 186.615 2735.5 190.59C2737.16 202.184 2744.46 206.159 2756.75 201.853C2763.72 199.203 2768.37 199.203 2770.69 201.522C2774.01 204.834 2769.7 206.159 2760.4 205.165C2754.42 204.503 2751.77 211.128 2755.75 216.097C2762.39 224.047 2753.43 237.96 2742.14 237.96C2732.18 237.96 2729.52 233.322 2737.82 230.01C2745.13 227.36 2744.13 210.466 2736.16 205.497C2732.51 203.509 2726.87 195.89 2723.21 188.603C2719.56 181.646 2714.25 175.021 2711.26 174.027C2708.61 172.702 2706.28 168.065 2706.28 163.427C2706.28 157.464 2704.62 155.146 2699.97 155.146C2696.32 155.146 2691.01 152.827 2688.35 149.845C2680.38 141.895 2670.42 146.864 2667.77 160.114C2666.77 166.077 2663.45 172.04 2660.8 173.365C2656.15 175.021 2656.15 175.683 2660.46 180.984C2663.12 183.965 2666.44 188.934 2667.44 192.246C2668.43 195.228 2674.08 198.54 2679.72 199.865C2689.02 201.853 2696.32 209.472 2692.34 213.116C2691.67 213.778 2679.72 210.797 2666.11 206.159C2652.83 201.522 2633.24 196.884 2623.28 195.89C2613.32 194.896 2601.7 191.915 2597.71 189.596C2593.73 186.946 2588.09 184.959 2585.1 184.959C2575.8 184.959 2580.12 190.59 2593.73 195.89C2606.01 200.528 2607.01 202.184 2603.36 206.49C2599.37 211.459 2598.38 211.128 2595.39 205.165C2592.4 199.865 2590.41 199.203 2585.1 202.184C2581.45 204.503 2573.48 207.153 2566.84 208.478C2560.53 209.472 2552.56 211.791 2549.57 213.116C2545.26 214.772 2543.6 213.778 2543.6 210.134C2543.6 207.153 2541.27 204.834 2538.28 204.834C2529.98 204.834 2489.15 221.728 2485.16 226.697C2481.18 231.666 2469.89 232.991 2466.24 229.016C2464.91 228.022 2465.57 225.041 2467.57 222.391C2473.54 215.434 2464.91 208.147 2450.63 208.147H2438.02L2445.98 223.385C2454.95 240.61 2454.28 243.923 2443 238.954C2437.02 236.304 2433.7 236.635 2427.72 241.604C2423.41 245.248 2417.76 247.898 2415.11 247.898C2411.79 247.898 2411.12 249.885 2412.45 254.192C2414.44 261.148 2409.13 266.779 2405.81 261.148C2403.15 256.842 2377.59 256.842 2377.59 261.148C2377.59 262.804 2381.24 265.123 2385.89 266.448C2390.54 267.442 2394.19 270.092 2394.19 271.748C2394.19 276.055 2378.92 272.411 2365.97 264.792C2360.33 261.479 2356.01 256.51 2356.01 252.535C2356.01 249.223 2353.02 244.585 2349.37 242.266C2343.06 238.291 2343.06 238.291 2351.03 238.291C2355.68 238.291 2367.63 239.616 2377.59 240.941C2400.83 244.585 2420.75 237.96 2420.75 226.697C2420.75 220.072 2418.1 218.416 2401.83 215.103C2391.2 212.784 2366.3 206.49 2346.71 201.19C2326.79 195.559 2308.53 191.915 2305.54 192.909C2302.22 194.234 2301.23 193.24 2302.89 188.603C2304.55 183.302 2302.22 181.646 2288.94 178.996C2277.99 176.677 2271.68 176.677 2269.02 178.996C2266.37 180.984 2258.73 181.646 2250.43 180.652C2234.49 178.334 2196.64 186.946 2159.46 200.859C2136.55 209.472 2129.24 214.772 2140.2 214.772C2142.86 214.772 2145.18 216.097 2145.18 218.085C2145.18 221.397 2128.25 237.96 2124.93 237.96C2121.94 237.96 2108.66 260.485 2108.66 265.123C2108.66 273.073 2098.04 281.023 2092.06 277.711C2075.13 268.767 2038.94 294.605 2038.94 316.137C2038.94 322.431 2040.93 328.393 2043.25 329.387C2045.91 330.381 2047.24 334.687 2046.24 340.319C2045.25 348.269 2046.57 350.256 2056.53 354.894C2071.47 362.182 2071.14 362.182 2088.41 350.588C2105.01 339.325 2108.66 338.331 2108.66 345.619C2108.66 348.6 2112.31 356.55 2116.96 363.507C2125.59 376.094 2125.26 387.026 2116.96 387.026C2114.64 387.026 2110.32 388.02 2107.66 389.013C2103.68 390.339 2103.02 389.014 2104.34 384.376C2105.01 380.732 2104.34 376.757 2102.35 375.763C2100.69 374.438 2099.7 371.457 2101.02 368.807C2104.01 360.525 2089.4 362.844 2080.44 372.119C2070.81 381.395 2070.15 390.007 2077.45 404.251C2083.76 416.839 2081.1 420.152 2061.85 422.471C2040.27 425.121 2029.64 431.746 2028.31 442.346C2027.65 449.965 2024 453.277 2009.72 459.903C2000.42 464.54 1991.46 470.834 1990.46 474.147C1989.47 477.459 1983.82 482.097 1978.18 484.416C1969.21 488.06 1966.23 488.06 1958.59 484.085C1948.3 479.116 1947.97 479.447 1952.28 490.71C1955.27 498.66 1955.27 498.991 1942.65 497.335C1928.04 495.347 1912.77 498.329 1912.77 502.966C1912.77 504.623 1919.74 509.923 1928.71 514.229C1948.63 524.167 1957.26 540.067 1953.94 561.268C1952.61 570.874 1949.96 576.174 1945.97 577.499C1937.34 580.149 1885.22 578.493 1878.57 575.18C1874.59 573.193 1868.95 573.524 1862.64 576.505C1853.01 580.812 1852.68 581.474 1854.67 597.375C1856 609.3 1855 618.906 1850.02 632.157C1845.71 644.413 1844.71 652.032 1846.7 656.007C1848.36 658.989 1849.69 665.614 1849.69 670.251C1849.69 678.533 1850.35 678.864 1862.64 676.877C1874.59 674.889 1875.92 675.552 1881.9 685.82C1887.87 696.089 1888.2 697.415 1882.89 709.009C1879.57 716.959 1870.61 726.234 1859.32 734.515C1839.07 749.091 1833.09 758.697 1833.09 777.579C1833.09 788.51 1830.77 792.486 1816.49 805.736C1807.52 814.017 1797.23 820.974 1793.58 820.974C1789.93 820.974 1784.95 824.286 1782.96 828.261C1780.63 832.568 1773.99 841.512 1767.68 848.468C1761.37 855.425 1757.06 863.375 1758.05 865.694C1758.72 868.012 1755.4 873.975 1750.09 878.944C1745.11 883.913 1739.79 892.857 1738.8 898.819C1737.47 904.782 1734.48 911.407 1731.83 913.726C1725.52 919.026 1725.52 933.601 1731.49 942.214C1734.81 946.52 1735.15 949.833 1732.82 952.483C1730.83 955.133 1730.83 958.446 1733.15 963.083C1735.15 966.727 1736.81 973.684 1736.81 978.984C1736.47 991.24 1725.19 1024.03 1720.54 1025.69C1714.89 1027.68 1716.22 1035.3 1722.2 1037.62C1726.18 1039.27 1727.18 1042.25 1725.52 1050.87C1722.86 1065.44 1728.17 1078.69 1738.13 1082.34C1749.42 1086.64 1768.68 1111.49 1773.66 1128.38C1777.98 1143.62 1782.29 1147.59 1825.45 1178.07L1849.36 1194.96L1863.63 1188.67C1879.24 1181.71 1912.44 1179.73 1922.73 1185.36C1927.71 1188.01 1934.69 1186.35 1953.94 1177.08C1998.1 1156.21 2021.67 1158.53 2033.62 1184.69L2039.27 1197.61L2056.87 1195.96C2069.81 1194.96 2076.79 1195.96 2083.43 1200.26C2091.06 1205.23 2092.06 1208.21 2092.06 1225.44C2092.06 1236.7 2089.4 1251.61 2085.75 1260.88L2079.11 1277.12L2097.7 1304.94C2119.95 1337.74 2143.19 1392.06 2138.87 1400.34C2136.88 1403.66 2137.54 1409.62 2140.53 1416.91C2147.17 1432.81 2146.18 1446.06 2136.55 1468.58C2114.64 1520.26 2115.63 1536.16 2143.19 1594.46C2160.12 1630.57 2161.78 1636.2 2161.78 1656.74C2161.78 1676.28 2163.44 1682.24 2174.4 1703.11C2200.63 1754.13 2209.59 1778.31 2201.62 1778.31C2197.31 1778.31 2212.25 1807.13 2217.89 1809.78C2220.22 1810.77 2232.17 1809.12 2243.79 1806.13C2255.74 1803.15 2269.69 1801.83 2275.33 1802.82C2281.31 1803.82 2288.94 1802.82 2294.59 1799.84C2299.9 1797.19 2308.53 1794.87 2313.84 1794.87C2323.8 1794.87 2337.75 1781.62 2379.58 1733.26C2401.49 1707.75 2401.49 1707.75 2403.82 1685.89C2405.81 1668 2406.47 1667.01 2423.08 1656.41C2437.68 1646.8 2440.67 1643.16 2442.33 1632.22C2443.66 1624.94 2442.66 1609.37 2440.34 1597.77L2436.02 1576.24L2455.94 1558.02C2466.57 1548.08 2482.17 1536.16 2490.47 1531.85C2514.05 1519.27 2516.37 1515.29 2519.03 1481.83C2521.02 1454.34 2520.36 1448.71 2510.39 1414.59C2496.45 1364.9 2496.45 1354.63 2509.4 1326.8C2521.02 1302.29 2565.18 1248.96 2588.75 1231.4C2603.36 1220.47 2638.22 1167.8 2655.15 1131.03C2669.43 1099.89 2669.43 1063.79 2655.48 1075.71C2653.16 1077.37 2642.2 1080.35 2631.58 1082.34C2620.62 1083.99 2603.03 1088.3 2592.73 1091.94L2573.81 1098.24L2565.18 1089.29C2560.2 1083.99 2557.54 1078.36 2558.54 1075.38C2560.86 1069.42 2531.64 1033.64 2509.73 1015.75C2498.77 1006.81 2493.79 999.522 2490.47 988.59C2488.15 980.64 2482.84 970.371 2478.52 966.396C2472.88 961.096 2470.55 955.464 2470.55 946.852C2470.55 938.239 2465.57 925.982 2454.28 906.438C2445.32 890.869 2432.7 866.025 2426.4 851.449C2414.78 824.949 2414.78 824.618 2421.75 822.299C2430.38 819.649 2444.32 834.887 2464.24 868.012C2471.22 880.269 2478.52 891.2 2480.18 892.194C2482.17 893.188 2485.16 902.132 2487.15 912.07C2490.14 926.645 2493.79 932.939 2504.09 942.545C2511.06 949.171 2517.7 957.452 2519.03 961.427C2520.02 965.402 2525.34 972.69 2530.32 978.321C2546.58 995.878 2551.23 1011.12 2536.29 997.534C2531.31 992.897 2530.32 992.897 2530.32 997.203C2530.32 999.853 2533.3 1004.82 2536.96 1008.13C2540.28 1011.12 2546.58 1023.7 2550.57 1035.96C2554.55 1047.89 2559.53 1058.82 2561.52 1060.14C2566.5 1063.79 2584.43 1059.81 2588.75 1054.18C2590.74 1051.53 2597.05 1049.54 2603.03 1049.54C2612.32 1049.54 2618.96 1047.22 2633.24 1038.94C2635.9 1037.29 2647.52 1031.65 2658.47 1026.02C2669.76 1020.72 2679.72 1013.43 2680.39 1010.45C2681.38 1006.81 2689.02 1002.5 2700.64 998.859C2712.92 994.884 2719.89 990.909 2721.22 986.603C2722.55 982.959 2725.21 979.977 2727.86 979.977C2735.17 979.977 2752.76 960.102 2752.76 951.821C2752.76 946.852 2755.09 943.539 2759.74 942.545C2763.72 941.552 2765.71 939.233 2764.38 937.245C2763.39 935.258 2765.38 929.295 2769.03 923.995C2773.02 918.695 2776 912.732 2776 910.745C2776 904.782 2755.09 887.557 2747.78 887.225C2735.5 886.894 2726.2 874.969 2726.2 859.4C2726.2 847.806 2723.21 848.468 2707.94 864.037C2695.33 876.956 2673.41 886.563 2666.44 882.256C2664.45 881.263 2663.12 875.963 2663.12 870.994C2663.12 866.025 2660.13 859.068 2656.48 855.756C2650.5 850.456 2649.84 850.456 2647.85 855.425C2644.86 863.043 2640.21 859.068 2633.24 842.837C2629.92 835.549 2623.61 825.611 2618.63 821.305C2608.01 811.367 2607.01 796.461 2616.31 791.161C2629.26 784.204 2635.23 787.185 2646.85 806.398C2655.82 821.305 2662.12 827.599 2677.73 835.88C2697.65 846.812 2704.95 847.143 2717.57 838.862C2724.21 834.224 2738.16 838.53 2734.5 844.162C2727.86 855.093 2763.39 863.706 2824.15 866.025L2863.99 867.681L2877.27 880.269C2884.57 887.557 2895.86 895.838 2902.17 899.151C2908.48 902.132 2911.8 905.444 2909.81 906.107C2902.5 908.757 2905.16 916.045 2917.11 926.645C2927.4 935.589 2929.73 936.251 2937.03 932.939C2941.68 930.951 2945.33 926.645 2945.33 923.332C2945.33 920.02 2946.66 916.707 2948.32 915.713C2951.64 913.395 2955.29 924.657 2955.29 938.901C2955.29 956.127 2973.55 1012.77 2994.8 1060.8C3005.76 1085.98 3016.38 1112.15 3018.37 1119.44C3023.35 1137.32 3033.31 1139.97 3044.93 1125.73C3052.57 1116.46 3054.56 1115.46 3060.21 1119.11C3065.52 1122.42 3066.85 1127.06 3066.85 1141.63C3067.18 1155.21 3068.84 1161.18 3073.16 1164.49C3078.47 1168.13 3080.13 1167.8 3085.11 1163.49C3088.43 1160.51 3092.41 1153.89 3094.4 1148.92C3097.06 1140.64 3096.06 1137.32 3088.1 1126.39C3076.48 1110.49 3071.5 1106.85 3068.18 1112.48C3065.19 1117.45 3058.22 1114.14 3058.22 1107.51C3058.22 1105.19 3060.21 1102.54 3062.86 1101.55C3066.85 1099.89 3067.51 1091.28 3067.18 1057.49L3066.52 1015.42L3075.48 1012.44C3080.46 1010.78 3085.44 1006.81 3086.44 1003.5C3087.43 1000.18 3096.4 990.909 3106.03 982.296C3115.99 973.684 3125.28 963.746 3126.28 960.102C3127.61 956.458 3132.92 951.158 3138.23 948.508C3144.87 944.864 3147.86 940.889 3147.86 935.589C3147.86 924.326 3153.5 921.345 3176.08 921.014C3191.68 921.014 3197 919.357 3201.31 914.057C3207.62 906.438 3211.6 909.088 3215.92 923.664C3219.91 937.576 3233.85 953.477 3239.49 951.158C3243.81 949.502 3244.47 950.496 3242.48 956.458C3240.82 962.09 3242.48 965.402 3248.79 970.371C3256.09 976.334 3257.42 979.646 3257.42 995.215C3257.42 1011.45 3258.09 1013.1 3266.06 1015.09C3271.7 1016.75 3276.68 1015.42 3281.66 1010.78C3300.92 994.222 3299.26 993.228 3310.21 1028.67C3323.16 1070.74 3327.48 1089.96 3324.49 1094.26C3323.16 1095.92 3322.17 1107.18 3322.17 1119.11C3322.17 1137.66 3322.83 1140.64 3327.81 1139.64C3336.77 1138.32 3360.35 1177.08 3358.02 1189.33C3355.7 1201.26 3369.31 1221.8 3385.58 1230.41C3391.89 1234.05 3399.52 1240.01 3402.18 1243.99C3413.8 1261.88 3417.78 1246.31 3406.83 1225.11C3403.18 1217.82 3400.19 1206.89 3400.19 1200.6C3400.19 1187.68 3382.26 1163.83 3362.34 1150.24C3354.37 1144.61 3350.39 1139.64 3350.39 1134.01C3350.39 1129.71 3346.4 1121.42 3341.75 1115.79L3332.79 1105.52L3338.1 1086.64C3341.09 1076.37 3344.08 1064.12 3344.41 1059.48C3345.74 1047.55 3355.7 1048.55 3354.7 1060.47C3354.04 1068.42 3355.03 1069.42 3361.01 1067.76C3365.99 1066.1 3371.3 1069.09 3382.26 1080.02C3390.23 1087.64 3396.87 1095.92 3396.87 1098.24C3396.87 1100.22 3400.19 1102.54 3404.5 1103.21C3410.15 1103.87 3411.81 1106.52 3412.47 1115.13C3412.8 1121.42 3413.47 1126.72 3414.13 1127.72C3416.79 1130.04 3440.03 1108.84 3440.03 1103.87C3440.03 1101.55 3443.68 1098.57 3448 1097.24C3452.31 1096.25 3459.95 1090.95 3464.93 1085.98C3473.23 1077.04 3473.89 1074.72 3472.23 1058.49C3469.91 1034.3 3464.93 1025.69 3435.05 993.228C3418.78 975.671 3410.15 963.415 3410.15 958.446C3410.15 946.52 3435.71 923.664 3448.99 923.664C3457.96 923.664 3459.62 924.989 3460.61 932.608C3461.94 944.533 3473.23 947.514 3473.23 936.251C3473.23 927.97 3486.84 919.357 3495.14 922.67C3497.8 923.664 3502.45 922.339 3505.77 920.02C3510.75 915.713 3522.7 909.751 3541.29 901.801C3556.9 895.176 3578.81 866.025 3587.44 840.849C3597.74 810.373 3602.38 777.579 3595.74 783.542C3589.77 789.504 3581.47 788.842 3584.12 782.879C3585.12 780.229 3587.11 775.591 3588.11 772.941C3589.44 769.629 3588.11 767.972 3584.46 767.972C3580.8 767.972 3579.47 766.316 3580.8 763.004C3583.13 756.71 3556.57 725.571 3539.97 714.64L3532 709.671L3542.62 694.102C3549.26 684.496 3555.57 678.533 3559.55 678.533C3563.21 678.533 3566.19 676.545 3566.19 673.895C3566.19 667.27 3540.63 665.614 3529.34 671.576C3521.37 675.552 3520.04 675.22 3512.08 667.27C3507.43 662.632 3501.12 658.657 3498.13 658.657C3489.83 658.657 3492.49 653.357 3509.75 635.469C3525.69 618.906 3535.32 616.256 3532 629.175C3530.34 635.801 3536.31 652.032 3540.3 652.032C3541.63 652.032 3544.28 649.382 3545.94 645.738C3550.26 637.788 3563.21 634.476 3574.16 638.782C3581.13 641.432 3582.79 644.082 3582.79 653.357C3582.79 664.289 3583.46 664.62 3599.4 668.595C3614 671.908 3616 673.564 3614 679.195C3612.68 683.502 3614 687.146 3617.99 689.796C3621.64 692.446 3623.63 698.408 3623.63 705.365C3623.63 722.59 3627.62 725.571 3641.89 719.609C3648.53 716.959 3656.5 712.321 3659.49 709.671C3664.8 704.702 3664.8 703.377 3658.16 687.808C3652.85 674.889 3647.54 668.595 3632.26 658.326C3621.64 651.37 3612.34 644.082 3611.35 642.757C3610.35 641.101 3613.34 636.132 3617.66 632.157C3623.63 626.525 3625.96 620.894 3625.96 611.619C3625.96 597.706 3636.25 583.793 3644.55 587.106C3647.21 588.099 3651.19 590.087 3653.85 591.081C3661.81 594.062 3675.09 578.493 3680.41 558.617C3683.39 548.349 3685.72 529.798 3685.72 517.21C3685.72 496.341 3684.39 491.703 3671.44 467.853C3650.19 428.764 3648.87 427.108 3632.93 419.82C3615.66 412.202 3607.36 411.87 3604.71 418.495C3601.72 426.446 3598.07 424.458 3589.77 410.877C3582.46 398.951 3582.46 398.951 3584.46 408.558C3586.45 417.833 3586.45 418.164 3580.14 412.533C3576.82 409.551 3571.51 406.901 3568.52 406.901C3559.89 406.901 3558.56 400.939 3565.53 391.995C3569.18 387.357 3573.17 378.082 3574.16 371.457C3578.81 345.95 3581.8 341.644 3598.4 339.325C3624.96 335.681 3682.4 337.006 3682.4 340.981C3682.4 343.631 3688.04 344.294 3700.99 342.969C3719.25 340.981 3727.55 337.669 3720.25 335.018C3707.96 330.712 3705.64 326.075 3709.62 313.155C3712.94 301.893 3714.6 300.899 3725.23 300.899C3733.86 300.899 3739.84 303.549 3747.81 311.499L3758.76 322.099L3766.73 314.481C3773.37 308.187 3774.37 305.868 3771.05 300.568C3767.06 293.943 3769.39 288.974 3775.03 292.617C3777.02 293.611 3781.01 298.911 3783.66 304.211C3787.98 312.493 3787.98 315.143 3783.66 327.4C3781.01 335.35 3778.68 344.294 3778.68 347.606C3778.68 350.919 3776.03 355.556 3772.71 357.544C3767.06 361.188 3766.73 362.513 3771.05 375.101C3774.03 383.051 3781.34 392.989 3789.64 400.276C3797.27 406.57 3815.87 423.464 3831.14 437.708C3846.41 451.953 3860.03 462.553 3862.02 461.559C3866.33 458.578 3865.67 441.021 3861.02 438.04C3858.37 436.383 3859.36 434.396 3863.35 431.414C3868.99 427.108 3868.99 426.446 3864.01 420.814C3857.7 414.189 3861.69 404.251 3868.66 408.889C3871.31 410.214 3869.32 406.57 3864.34 400.608C3854.05 388.682 3852.39 383.051 3860.03 385.701C3870.32 389.676 3864.67 381.395 3853.39 376.094C3847.08 373.113 3841.76 368.476 3841.76 365.494C3841.76 362.844 3837.78 359.863 3832.8 358.538C3816.53 355.225 3814.87 353.9 3815.87 347.938C3816.53 344.294 3814.87 339.325 3812.55 336.675C3809.23 332.368 3809.89 331.043 3818.86 327.4C3827.16 323.756 3830.48 323.756 3835.79 327.068C3841.43 330.381 3843.42 330.05 3848.74 325.412C3854.71 320.112 3856.04 320.112 3868.33 325.081C3877.29 328.393 3881.61 329.056 3881.61 326.406C3881.61 318.787 3899.2 297.918 3908.83 293.943C3916.47 290.961 3921.45 290.63 3928.42 293.28C3945.02 299.574 3942.7 291.292 3925.76 284.336C3917.13 280.692 3905.18 275.061 3899.2 272.08C3888.91 266.779 3888.91 266.448 3895.22 261.81C3899.2 259.16 3901.19 255.185 3900.2 252.204C3898.54 247.898 3900.86 247.566 3915.47 249.554C3925.1 250.879 3937.72 254.854 3943.69 258.167C3955.98 265.786 3987.85 270.754 3987.85 265.123C3987.85 263.136 3985.19 259.823 3982.21 258.167C3976.89 255.185 3976.89 254.192 3981.21 251.21C3989.51 245.579 3977.89 239.616 3950.66 234.979C3937.38 232.991 3898.21 223.716 3863.35 214.772C3828.82 205.828 3781.67 196.221 3758.76 193.24C3735.85 190.259 3714.6 187.278 3710.95 186.615C3705.97 185.621 3706.64 187.278 3714.27 195.228L3723.9 205.497L3715.6 203.509C3681.73 196.553 3667.79 194.896 3636.25 194.896C3605.37 194.896 3599.73 193.903 3594.75 188.603C3587.11 180.321 3579.47 178.996 3521.37 175.352C3492.82 173.365 3466.59 170.052 3459.95 167.402C3447 162.102 3358.02 153.158 3354.37 156.802C3353.04 157.796 3355.7 161.771 3360.35 165.414L3368.65 172.371L3337.77 170.052C3320.84 169.058 3304.9 167.402 3302.24 166.408C3298.59 164.752 3297.26 166.739 3297.26 173.033C3297.26 177.671 3296.6 181.646 3295.94 181.646C3290.62 181.646 3260.74 166.077 3254.1 159.783C3245.8 152.164 3208.29 141.895 3188.7 141.895C3181.72 141.895 3180.73 142.558 3184.38 146.864C3188.03 151.17 3185.38 151.833 3165.12 151.833C3152.17 151.833 3140.55 150.177 3139.56 148.52C3138.56 146.533 3126.94 145.208 3113.99 145.208C3096.06 145.208 3088.76 143.551 3081.46 138.583C3072.16 131.957 3064.86 132.289 3054.9 140.239C3049.91 144.214 3028.33 149.845 3028.33 146.864C3028.33 146.202 3035.97 141.564 3044.93 136.595C3061.2 127.651 3063.86 124.007 3058.88 117.051C3054.9 111.419 3026.01 105.457 3002.11 105.457C2984.84 105.457 2978.86 104.132 2977.2 100.488C2975.21 95.1879 2948.32 93.8628 2932.05 98.5004ZM2258.07 252.204C2258.07 254.192 2249.1 262.142 2238.14 269.43L2218.56 282.68L2218.89 301.561C2219.22 330.05 2223.54 333.031 2260.39 327.4C2302.89 321.106 2313.18 322.099 2304.88 332.037C2302.22 335.35 2294.59 336.675 2280.31 336.675C2269.02 336.343 2256.07 338 2251.76 340.65L2243.46 344.956L2251.09 350.919C2256.74 355.556 2258.4 359.2 2256.74 365.494C2254.41 375.101 2250.76 376.094 2244.78 368.807C2242.46 366.157 2238.14 363.838 2234.82 363.838C2224.86 363.838 2220.55 372.451 2222.87 387.026C2224.86 399.614 2224.53 400.276 2211.92 406.901C2198.97 413.195 2198.64 413.195 2194.32 407.233C2190 400.939 2189.34 401.27 2171.74 408.889C2150.16 418.164 2143.19 418.495 2139.2 411.539C2136.55 406.57 2135.22 406.57 2125.59 411.87C2112.64 418.495 2109.32 416.839 2118.62 408.558C2122.27 405.245 2125.26 400.608 2125.26 398.289C2125.26 393.32 2143.52 395.307 2151.16 401.27C2153.81 403.258 2155.14 403.258 2155.14 400.939C2155.14 398.951 2153.48 396.301 2151.82 395.307C2146.51 391.995 2151.49 387.026 2160.45 387.026C2169.42 387.026 2175.73 375.763 2173.07 365.163C2171.41 357.544 2173.73 353.9 2187.68 344.294C2193.32 340.319 2198.3 336.012 2198.3 334.687C2198.3 333.362 2193.65 329.718 2188.34 326.737C2168.42 315.474 2179.71 287.317 2209.26 275.061C2214.24 273.073 2218.22 269.429 2218.22 266.779C2218.22 264.461 2220.55 259.16 2223.54 255.185C2227.52 249.554 2231.84 247.898 2243.46 247.898C2253.08 247.898 2258.07 249.223 2258.07 252.204ZM2443.66 534.436C2439.68 540.73 2435.36 546.03 2433.7 546.03C2425.73 546.03 2432.7 553.317 2449.97 562.924C2469.89 574.187 2497.11 597.706 2497.11 604.331C2497.11 606.319 2494.46 610.294 2491.47 612.944C2483.5 619.9 2443.99 615.925 2425.4 606.319C2412.45 599.694 2410.79 599.694 2390.87 604.331C2379.25 606.981 2367.96 610.625 2365.64 612.613C2359.99 617.25 2339.74 612.944 2330.11 605.325C2324.14 600.687 2322.48 597.043 2323.8 589.424C2324.47 583.793 2326.46 579.156 2327.79 579.156C2329.45 579.156 2331.44 574.849 2332.77 569.549C2333.76 564.249 2337.08 558.949 2339.74 557.955C2342.4 556.961 2344.39 554.311 2344.39 551.661C2344.39 549.342 2347.71 544.042 2352.02 540.067C2358 534.436 2361.99 533.442 2371.95 535.098C2384.23 537.086 2387.22 540.398 2380.91 544.373C2378.59 545.699 2380.91 550.005 2386.22 554.974C2393.19 561.599 2396.51 562.593 2402.16 559.943C2406.14 558.286 2412.78 555.305 2417.43 553.317C2423.08 550.999 2423.74 549.674 2420.09 549.674C2405.48 549.011 2411.79 531.454 2428.39 526.486C2449.3 520.523 2451.3 521.517 2443.66 534.436ZM2617.97 527.811C2629.92 532.779 2632.91 539.736 2626.93 549.011C2625.27 551.33 2622.61 552.655 2620.62 551.33C2615.64 548.349 2606.68 552.655 2606.68 557.624C2606.68 559.943 2605.02 562.593 2603.03 563.255C2601.03 563.918 2607.67 571.868 2617.97 580.812C2630.58 591.743 2636.56 599.362 2636.56 604.662C2636.56 613.606 2639.22 614.269 2645.19 606.319C2649.51 601.019 2650.17 601.019 2656.48 608.638C2665.44 619.238 2664.78 622.219 2653.49 622.219C2638.88 622.219 2638.22 627.519 2650.84 639.444C2659.8 648.057 2662.79 654.02 2664.12 665.945L2666.11 681.183L2650.17 683.502C2634.24 685.489 2619.96 681.845 2619.96 675.22C2619.96 673.564 2615.97 671.908 2611.33 671.245C2598.71 669.92 2593.73 660.645 2601.03 652.695C2604.02 649.382 2606.68 643.42 2606.68 639.776C2606.68 635.801 2608.67 632.157 2610.99 631.163C2613.32 630.501 2605.68 621.225 2592.73 609.3C2574.8 592.737 2570.16 586.443 2570.16 578.824C2570.16 572.53 2568.5 569.218 2565.18 569.218C2562.52 569.218 2560.2 566.568 2560.2 563.586C2560.2 557.292 2572.81 542.717 2578.13 542.717C2580.12 542.386 2587.09 538.08 2593.4 532.779C2599.71 527.148 2605.02 522.842 2605.35 522.842C2605.68 522.842 2611.33 525.161 2617.97 527.811ZM2166.43 577.168C2172.07 581.474 2186.02 590.418 2197.64 597.375C2216.56 608.306 2218.22 610.294 2218.22 620.894C2218.22 636.132 2225.86 650.707 2237.15 656.007C2242.79 658.657 2247.11 664.289 2248.77 670.914C2250.43 676.877 2253.09 681.845 2254.41 681.845C2256.07 681.845 2259.73 682.839 2262.71 683.833C2266.37 685.158 2268.03 684.164 2268.03 680.52C2268.03 677.87 2271.68 672.901 2276.33 669.92C2286.95 662.964 2286.62 660.976 2274.67 648.72C2269.35 643.088 2264.71 636.463 2264.71 633.813C2264.71 627.85 2268.69 627.519 2274 632.819C2276.66 635.469 2279.31 634.807 2283.96 628.844C2293.59 616.919 2302.22 622.219 2308.86 644.745C2318.16 674.227 2322.14 681.845 2329.12 681.845C2332.44 681.845 2341.07 685.158 2348.37 689.133C2360.66 696.09 2361.65 696.089 2364.64 690.789C2368.63 683.833 2377.59 683.502 2386.22 690.127C2389.54 692.777 2395.52 694.764 2399.17 694.764C2402.82 694.764 2408.8 692.777 2412.12 690.127C2415.77 687.477 2422.74 685.158 2428.06 685.158C2436.02 685.158 2437.35 686.483 2438.02 694.102C2439.01 712.652 2436.69 723.584 2428.39 742.466C2417.1 767.641 2411.79 770.954 2387.22 768.966C2375.27 767.641 2362.32 768.635 2354.68 771.285C2342.73 774.929 2339.74 774.266 2298.57 758.366C2256.74 741.803 2254.74 741.472 2243.79 745.778C2228.52 752.403 2220.55 763.335 2225.53 772.279C2230.84 782.548 2216.56 789.504 2208.6 779.898C2206.6 777.579 2197.97 774.598 2189.34 773.604C2179.71 772.61 2172.07 769.629 2168.75 765.654C2159.46 754.06 2142.86 744.784 2131.24 744.784C2124.26 744.453 2116.63 741.141 2109.32 735.178C2098.7 726.234 2098.7 725.903 2103.35 714.64C2109.32 700.396 2104.34 680.189 2093.72 676.877C2084.75 673.895 2063.51 674.889 2047.24 679.195C2039.93 680.852 2020.01 683.833 2003.08 685.489C1970.54 688.471 1962.91 691.121 1949.29 703.377C1941.66 710.334 1938.67 710.996 1918.42 709.34C1897.83 707.683 1895.84 706.69 1896.84 700.396C1897.83 692.777 1908.12 686.814 1928.38 681.845C1943.32 678.202 1971.21 654.682 1967.55 648.72C1963.57 642.095 1980.5 618.244 1994.12 611.619C2009.39 603.669 2013.04 599.694 2010.38 591.743C2007.73 583.131 2024 577.499 2038.6 582.137C2048.57 585.118 2051.55 584.456 2064.17 575.843C2083.43 562.261 2090.4 562.924 2098.37 578.824C2106.34 594.062 2120.94 606.981 2140.86 616.256C2154.15 622.55 2171.74 639.113 2171.74 645.076C2171.74 646.732 2168.75 651.701 2164.77 656.339C2158.79 663.957 2156.47 664.951 2143.85 663.295C2121.61 659.982 2121.61 667.27 2143.85 676.877C2154.15 681.514 2163.11 685.158 2163.77 685.158C2164.44 685.158 2165.1 680.52 2165.1 675.22C2165.1 667.933 2166.76 665.283 2171.08 665.283C2174.4 665.283 2179.71 660.976 2182.7 655.345C2187.35 647.395 2188.01 644.082 2185.02 638.451C2179.38 628.513 2185.35 623.213 2196.64 628.182C2203.62 631.494 2204.94 631.163 2204.94 626.857C2204.94 624.207 2197.97 618.906 2189.34 615.263C2180.37 611.619 2172.07 606.319 2170.75 603.669C2169.42 601.019 2165.43 599.031 2162.11 599.031C2156.14 599.031 2144.52 587.768 2132.56 570.212C2123.93 557.955 2123.6 553.317 2130.57 545.698C2135.88 539.736 2136.55 540.398 2146.18 554.642C2151.49 562.924 2160.79 572.862 2166.43 577.168Z" fill="url(#paint7_linear_105_36)"/>
<path d="M821.779 134.608C819.787 135.933 817.463 139.246 816.467 142.227C815.139 145.209 804.515 151.171 792.894 155.478L770.981 163.428L777.29 171.709C782.934 179.328 783.93 179.328 800.531 175.684C810.159 173.366 821.447 168.728 826.096 165.084C839.708 154.484 840.704 157.134 830.412 176.347C824.767 186.285 820.451 195.229 820.451 196.554C820.451 197.547 825.099 200.198 830.412 201.854C836.056 203.841 840.372 207.485 840.372 210.135C840.372 216.098 848.008 216.098 859.629 210.135C877.226 201.523 922.711 198.21 945.288 204.504C953.588 206.823 957.905 205.829 966.205 200.86C978.157 193.241 978.157 193.572 971.185 183.635C967.865 178.335 967.201 175.022 969.525 173.366C971.517 172.372 973.177 165.415 973.177 157.797C973.177 145.209 972.845 144.546 964.545 146.534C959.897 147.859 952.592 152.828 948.276 157.797C940.972 166.078 940.308 166.409 934.332 161.109C931.012 158.128 920.719 154.484 911.423 153.49C897.478 151.503 893.494 149.515 888.846 141.565C883.202 132.29 882.538 131.958 854.317 131.958C838.38 131.958 823.771 133.283 821.779 134.608Z" fill="url(#paint8_linear_105_36)"/>
<path d="M1081.41 148.521C1077.1 154.152 1063.82 164.752 1052.53 172.04C1041.24 179.659 1031.28 188.603 1030.28 192.247C1028.96 197.547 1026.63 198.541 1018 196.884C1003.72 194.234 983.138 202.847 983.138 211.46C983.138 217.422 980.813 218.085 962.553 218.416C931.344 219.079 925.699 218.085 918.063 211.128C911.755 205.166 909.763 204.834 895.486 208.81C887.186 211.128 880.214 214.772 880.214 217.091C880.214 220.404 871.913 221.397 846.348 221.066C819.123 221.066 813.811 220.072 819.787 217.422C834.064 210.466 831.408 208.81 783.598 198.209C772.974 195.89 760.689 194.897 756.041 196.222C749.733 197.878 747.409 197.216 747.409 193.24C747.409 189.265 745.749 188.934 738.444 191.915C731.14 194.565 728.484 194.234 725.164 189.597C722.508 185.953 719.188 184.959 715.203 186.615C701.259 192.247 658.761 199.866 651.125 198.209C646.477 197.216 637.513 198.209 631.204 200.528C615.268 206.16 602.651 205.828 592.691 199.534C587.379 195.891 572.438 193.24 548.865 191.253C503.047 187.94 461.214 180.653 453.578 175.021C449.261 171.709 402.116 181.646 362.274 194.234C345.01 199.866 325.421 205.166 319.113 206.491C297.532 210.466 295.54 211.791 297.532 218.416C298.528 221.729 300.188 227.691 301.184 231.335C302.512 236.966 301.516 237.96 292.884 237.96C287.239 237.96 282.591 236.635 282.591 234.979C282.591 233.323 270.307 234.979 255.366 239.285C234.449 244.917 227.809 248.229 225.817 253.861C223.493 259.823 224.489 261.48 231.129 263.136C235.777 264.13 245.406 264.461 252.71 263.798C263.002 262.805 265.659 263.798 264.331 267.111C263.334 269.761 262.67 272.742 262.67 274.399C262.67 275.724 255.698 277.711 247.066 278.705C204.568 283.011 170.703 297.255 158.751 315.475C149.786 329.056 151.446 334.356 163.399 331.706L173.691 329.719L168.047 338.663C162.735 346.282 162.735 347.275 167.715 345.288C174.355 342.638 196.268 346.613 196.268 350.257C196.268 352.907 66.7831 403.589 59.4788 403.589C57.1547 403.92 51.5105 405.908 46.8623 408.558C38.562 413.196 38.562 413.196 50.1825 411.539C89.6919 405.245 157.422 385.701 180.995 373.776C195.272 366.488 210.544 360.526 214.529 360.526C224.821 360.526 253.374 351.25 260.678 345.619C265.991 341.644 266.323 339.988 262.67 335.681C259.018 331.375 259.682 330.712 267.319 330.712C271.967 330.712 283.587 327.731 293.216 324.087C302.512 320.444 310.812 318.125 311.476 318.787C312.14 319.45 306.496 323.756 299.192 328.725C291.888 333.363 285.911 338 285.911 338.663C285.911 340.981 328.409 330.712 344.346 324.75C360.282 318.456 361.278 318.456 372.235 324.087C378.543 327.4 391.491 331.044 401.12 332.369C425.689 335.681 430.005 343.3 427.681 377.751L426.021 403.589H437.309C447.933 403.589 448.265 403.92 444.945 412.533C442.621 418.165 442.289 430.752 443.617 444.665L445.609 467.522L437.309 465.203C424.361 461.891 424.693 472.822 437.973 487.066C446.937 496.341 448.929 500.317 445.941 503.629C444.281 505.948 439.301 516.217 435.317 526.155C431.333 536.092 420.044 553.318 410.416 564.581C400.456 575.512 391.491 589.094 390.163 594.394C388.835 599.694 384.187 609.3 379.207 615.594C369.246 629.176 368.582 638.12 373.231 682.84L376.883 715.634L390.827 725.241C406.764 736.172 407.428 737.497 410.748 769.629C412.076 782.217 415.064 797.455 417.72 803.749C422.036 814.018 421.704 815.343 416.724 819.318C411.744 822.962 411.744 824.287 415.728 829.918C418.384 833.562 425.025 840.518 430.669 845.156C438.637 851.781 440.629 856.087 439.633 862.05C438.305 868.013 440.961 873.975 448.265 882.919C453.91 889.876 458.558 897.163 458.558 899.482C458.558 901.801 460.218 903.789 461.878 903.789C468.85 903.789 469.182 892.857 462.874 879.275C459.222 871.988 455.238 861.056 453.91 855.094C452.582 849.462 446.605 831.906 440.297 816.336C431.997 795.136 429.673 784.867 431.001 776.254C431.997 769.96 433.325 764.66 433.989 764.66C434.321 764.66 438.637 765.985 442.953 767.642C449.593 770.292 451.254 773.604 452.914 788.18C454.574 800.105 458.558 811.036 466.858 823.293C473.83 833.562 478.479 844.825 478.479 850.787C478.479 858.406 483.459 866.688 498.399 884.244C514.668 903.126 518.32 909.42 518.32 919.026C518.32 925.32 516.992 933.271 515.332 936.252C513.672 939.233 513.672 944.865 515 948.84C518.32 957.121 548.201 979.978 555.837 979.978C558.826 979.978 562.478 981.965 563.806 984.616C567.79 991.241 613.608 1013.43 623.9 1013.77C628.88 1013.77 638.509 1012.77 645.481 1011.45C657.433 1009.13 658.761 1009.46 674.034 1025.36C689.638 1041.59 693.291 1043.25 733.464 1053.85C743.424 1056.5 748.073 1059.81 749.401 1065.11C750.397 1069.09 754.049 1074.72 757.701 1078.03C761.021 1081.01 764.009 1087.31 764.009 1091.61C764.009 1101.88 797.875 1133.68 809.827 1134.68C814.475 1135.01 821.447 1138.65 825.764 1142.63C834.728 1151.24 845.352 1148.92 842.696 1138.98C840.704 1131.36 851.329 1120.76 858.633 1123.74C861.289 1124.74 864.609 1128.38 865.605 1131.36C866.601 1134.68 869.589 1141.3 872.245 1146.27C877.89 1156.87 878.554 1202.58 872.909 1212.85C870.917 1216.83 866.601 1222.13 862.949 1224.45C859.629 1226.76 856.973 1231.73 856.973 1235.38C856.973 1239.02 853.653 1243.33 849.669 1245.32C839.044 1249.95 825.764 1284.4 830.08 1295.67C831.74 1300.3 835.06 1304.94 836.72 1306.27C839.044 1307.59 837.384 1312.23 831.74 1319.52C823.772 1329.79 823.772 1331.44 827.424 1345.02C829.748 1352.97 835.724 1363.57 840.704 1369.21C845.684 1374.51 853.653 1387.43 858.633 1397.36C863.613 1407.3 871.913 1421.54 876.894 1428.83C881.874 1436.12 892.83 1455.66 901.13 1472.56C916.403 1502.7 916.735 1503.03 952.26 1528.21C971.849 1542.45 988.782 1554.38 989.114 1555.04C989.778 1555.37 993.098 1571.94 996.75 1591.81C1000.73 1616.32 1002.73 1644.15 1003.06 1679.93C1003.06 1718.35 1004.39 1737.23 1008.7 1752.14C1013.35 1769.37 1013.68 1777.65 1010.69 1814.09C1007.71 1851.52 1008.04 1857.48 1013.02 1867.75C1016.01 1874.04 1019.66 1887.62 1020.99 1897.56C1023.98 1924.39 1029.29 1940.63 1034.93 1940.63C1038.25 1940.63 1039.25 1938.31 1037.59 1932.34C1036.26 1927.71 1036.92 1924.06 1038.92 1924.06C1040.91 1924.06 1043.9 1931.68 1045.89 1940.63C1050.54 1961.83 1050.54 1961.49 1044.89 1959.51C1037.92 1956.86 1030.95 1965.8 1035.6 1971.43C1037.92 1974.08 1038.58 1981.04 1037.26 1988C1035.93 1997.6 1036.59 2000.25 1040.24 2000.25C1048.54 2000.25 1053.86 2008.86 1049.87 2016.15C1047.22 2021.45 1049.87 2027.42 1064.81 2049.28C1075.1 2064.18 1092.7 2084.72 1103.99 2095.65C1123.58 2113.54 1126.57 2115.53 1157.44 2123.48L1189.98 2131.76L1201.27 2125.47C1207.25 2121.82 1212.23 2117.85 1212.23 2116.52C1212.23 2115.2 1203.93 2111.55 1194.3 2108.24C1180.35 2104.27 1172.72 2098.97 1162.09 2087.04C1144.83 2067.5 1141.84 2059.88 1147.82 2052.92C1150.47 2049.94 1151.8 2045.3 1150.47 2042.32C1149.48 2039.34 1151.8 2031.39 1156.12 2024.43C1161.1 2016.48 1162.42 2011.85 1159.77 2010.85C1157.78 2010.19 1152.46 2006.88 1147.82 2003.23C1137.86 1995.28 1135.53 1975.08 1144.16 1971.76C1147.48 1970.44 1149.14 1965.14 1149.14 1957.19C1149.14 1950.23 1151.47 1942.94 1154.12 1940.63C1161.1 1934.99 1160.43 1930.69 1152.8 1930.69C1146.16 1930.69 1135.86 1919.09 1135.86 1911.81C1135.86 1909.16 1140.18 1907.83 1147.48 1908.16C1161.76 1908.82 1170.06 1902.2 1167.74 1892.26C1164.42 1880.01 1168.73 1874.37 1180.68 1874.37C1201.93 1874.37 1212.23 1870.4 1217.21 1860.79C1224.51 1846.88 1223.51 1828.99 1215.55 1824.69C1211.89 1822.7 1207.91 1817.4 1206.91 1813.09C1205.92 1808.45 1202.6 1804.81 1199.61 1804.81C1195.63 1804.81 1195.29 1803.82 1198.28 1800.83C1201.27 1797.85 1203.59 1798.52 1208.57 1802.82C1212.23 1806.13 1221.19 1809.45 1228.83 1810.44C1239.78 1812.1 1243.77 1811.1 1250.41 1804.81C1258.71 1796.86 1275.31 1759.76 1275.31 1748.5C1275.31 1744.19 1277.63 1741.87 1281.62 1741.87C1293.57 1741.87 1303.53 1720.01 1304.19 1692.18C1304.53 1678.6 1304.86 1666.34 1304.86 1665.35C1305.52 1660.71 1352.34 1632.22 1367.94 1626.92C1394.5 1618.64 1405.46 1601.75 1413.09 1558.35C1416.41 1539.8 1419.4 1513.63 1419.73 1499.72C1420.4 1475.54 1421.06 1473.55 1435.34 1453.35C1443.64 1441.75 1455.92 1420.55 1462.23 1406.31C1474.18 1380.8 1474.18 1380.8 1468.87 1365.89C1464.89 1353.97 1461.57 1349.66 1452.6 1346.02C1446.29 1343.37 1432.35 1333.43 1421.73 1324.15L1402.47 1306.6L1374.58 1305.94C1359.31 1305.27 1344.04 1304.61 1341.05 1304.61C1337.39 1304.28 1335.07 1301.63 1335.07 1296.99C1334.74 1291.36 1330.42 1287.72 1314.49 1280.43C1296.23 1272.15 1293.57 1271.82 1288.59 1276.45C1280.95 1283.41 1278.63 1282.75 1278.63 1273.8C1278.63 1269.17 1274.98 1264.53 1268.67 1260.88C1260.37 1256.25 1259.04 1253.6 1260.7 1246.97C1262.03 1241.34 1260.7 1237.7 1256.05 1234.38C1252.4 1232.07 1248.42 1224.11 1247.09 1216.83C1243.77 1199.6 1243.1 1198.28 1226.17 1184.03C1213.55 1173.76 1209.24 1172.11 1194.63 1172.11C1173.05 1172.11 1144.16 1157.86 1139.52 1145.61C1137.86 1140.64 1131.22 1134.68 1123.58 1130.7C1116.27 1127.06 1108.97 1121.42 1107.31 1117.45C1105.65 1113.81 1100.34 1108.84 1095.36 1106.52C1085.4 1101.88 1083.74 1097.57 1090.38 1094.59C1092.37 1093.6 1087.06 1093.6 1077.76 1094.59C1068.8 1095.59 1060.16 1097.91 1059.17 1099.56C1058.17 1101.55 1052.2 1100.56 1045.22 1097.57C1038.58 1094.92 1027.96 1092.61 1021.32 1092.61C1007.37 1092.61 991.438 1085.32 988.45 1077.37C986.79 1072.73 984.466 1074.06 974.837 1084.66C968.529 1091.61 963.549 1101.22 963.217 1105.52C963.217 1112.15 962.553 1112.81 958.237 1109.17C954.584 1106.19 953.92 1103.87 956.577 1101.22C958.237 1099.56 959.897 1093.93 959.897 1088.63C959.897 1083.66 962.221 1078.36 964.877 1077.04C967.533 1075.38 968.529 1072.4 967.201 1070.41C965.209 1067.43 960.561 1069.09 949.936 1076.04C941.968 1081.34 930.68 1086.64 925.035 1087.97C914.079 1090.29 907.107 1097.57 906.775 1106.52C906.775 1109.83 902.458 1117.12 897.478 1123.08L887.85 1133.35L875.897 1123.74C866.269 1116.46 860.957 1114.47 851.329 1115.46C844.356 1115.79 836.056 1117.78 832.404 1119.77C818.791 1127.06 797.211 1103.87 797.211 1082.34C797.211 1076.04 799.535 1060.8 802.855 1048.22L808.167 1025.69L800.199 1019.4C793.89 1014.43 786.254 1013.1 763.345 1013.1H734.46L743.092 992.234C747.741 980.972 754.381 963.415 758.033 953.477C762.017 943.539 766.333 933.602 767.661 931.614C769.654 928.964 766.001 927.308 755.377 925.652C734.46 923.001 722.84 929.295 716.864 947.515C712.215 961.427 711.551 961.759 687.978 968.053C660.089 975.34 652.453 973.021 640.169 953.809C625.56 930.62 624.564 918.695 635.188 887.557C640.169 871.988 644.485 854.1 644.485 847.143C644.485 835.549 645.813 834.224 675.362 814.68C700.595 798.117 708.563 794.473 719.852 794.473C727.488 794.473 734.792 795.799 735.788 797.786C739.44 803.417 751.725 801.43 759.693 793.811C769.653 784.536 809.495 781.886 812.815 790.167C814.143 793.811 817.795 794.474 825.432 793.148C833.732 791.492 837.384 792.817 843.692 799.442C850.333 806.73 851.329 809.38 848.34 816.999C844.356 826.937 847.676 843.831 855.977 856.087C869.257 876.625 878.554 854.431 875.233 809.711L873.241 779.567L889.178 762.341C897.81 752.735 915.739 738.491 928.355 730.209C941.304 721.928 957.241 709.671 964.213 702.715C974.837 692.115 976.497 688.471 975.169 679.196C974.173 671.577 974.837 668.596 978.489 668.596C981.145 668.596 985.794 663.627 988.782 657.333C991.77 651.039 995.754 646.732 998.078 647.395C1000.4 648.389 1006.71 643.42 1012.35 636.463C1019.66 626.857 1027.3 622.219 1040.58 617.913C1050.2 614.932 1060.83 612.282 1063.48 612.282C1070.46 612.282 1077.43 603.669 1073.11 600.688C1067.8 597.706 1082.74 576.506 1092.7 572.862C1097.35 571.206 1113.62 565.243 1129.22 559.612C1156.78 549.674 1157.11 549.674 1147.82 557.293C1134.87 567.893 1137.86 576.837 1152.46 572.531C1158.44 570.874 1164.75 567.893 1167.07 566.237C1169.06 564.58 1177.7 561.268 1186.33 559.28C1194.96 556.962 1204.26 552.324 1207.58 549.011C1210.57 545.699 1215.88 542.717 1219.53 542.717C1223.85 542.717 1225.51 540.399 1225.51 534.436C1225.51 529.467 1223.51 526.155 1220.86 526.155C1218.2 526.155 1213.22 529.798 1209.57 534.436C1200.61 545.699 1181.35 546.03 1174.04 535.099C1169.4 527.811 1169.73 526.155 1177.7 511.579C1185 498.329 1185.67 495.016 1182.01 492.698C1174.38 487.729 1166.74 489.385 1143.17 499.654L1120.92 509.592L1132.54 499.654C1138.85 494.023 1146.16 489.716 1148.81 489.716C1151.47 489.716 1156.45 487.066 1160.1 483.754C1165.08 479.116 1175.04 477.791 1210.23 476.135C1250.74 474.478 1255.06 473.485 1274.64 463.878C1285.93 457.915 1295.23 454.272 1295.23 455.928C1295.23 457.253 1283.94 469.51 1270.33 483.091C1256.72 496.673 1245.43 508.929 1245.43 510.254C1245.43 511.911 1255.06 512.904 1266.68 512.904C1278.63 512.904 1289.25 514.561 1290.25 516.548C1291.58 518.536 1294.57 519.198 1297.22 518.204C1299.55 517.211 1303.2 518.867 1304.86 521.848C1307.51 526.817 1308.51 526.817 1316.48 521.848C1323.45 517.211 1324.45 514.892 1321.79 508.267C1320.13 503.96 1319.8 497.335 1320.79 493.36C1322.12 487.397 1321.13 486.404 1313.16 486.404C1301.21 486.404 1292.91 472.491 1300.54 466.197C1303.2 464.209 1304.19 461.228 1303.2 459.572C1302.2 457.915 1304.53 452.284 1308.18 446.984C1314.82 438.04 1314.82 436.715 1309.84 422.14C1306.85 413.527 1301.54 405.245 1297.22 403.258C1293.57 401.27 1286.26 395.639 1281.28 391.001C1274.31 384.708 1272.98 381.395 1275.64 376.757C1278.96 370.132 1272.98 324.087 1268.34 324.087C1267.01 324.087 1261.7 327.731 1256.38 332.037C1251.4 336.344 1240.78 342.969 1233.47 346.613C1219.86 353.569 1219.53 353.569 1212.89 347.275C1205.25 340.319 1206.25 328.394 1214.88 321.768C1219.2 318.125 1218.53 317.131 1211.23 314.481C1206.25 312.493 1197.95 306.199 1192.64 300.237C1185.67 292.618 1181.68 290.299 1179.36 292.949C1177.03 294.937 1168.4 295.599 1157.11 294.274C1138.85 292.287 1138.52 292.287 1130.55 303.881C1126.23 310.506 1122.58 318.125 1122.58 320.775C1122.58 323.756 1116.61 332.037 1109.3 338.994C1098.35 349.594 1097.02 352.575 1101 354.894C1106.98 358.207 1107.31 363.838 1102.33 374.77C1098.35 383.382 1068.8 402.264 1056.18 404.252C1049.21 405.245 1047.22 407.896 1043.23 425.452C1039.25 443.009 1037.26 446.321 1026.3 452.615L1013.68 459.572L1011.69 451.953C1010.69 447.646 1008.7 441.684 1007.71 438.702C1006.38 434.727 1007.04 433.734 1010.69 435.39C1013.35 436.384 1016.67 435.721 1018 433.734C1018.99 431.746 1017.67 430.09 1015.01 430.09C1008.04 430.09 1008.37 424.127 1016.34 410.877L1022.98 400.277H1012.02C1006.38 399.945 995.422 397.295 988.118 393.651C980.813 390.008 972.845 387.358 970.853 387.026C968.529 387.026 966.537 385.701 966.537 383.714C966.537 378.082 949.936 369.47 939.644 369.801C930.68 370.132 930.016 369.138 930.016 356.882C930.016 346.944 928.688 343.963 924.371 343.963C912.087 343.963 942.632 319.781 976.829 302.555C996.086 292.949 1013.68 282.68 1016.01 279.699C1018.66 276.717 1023.31 274.399 1026.3 274.399C1034.93 274.399 1062.82 262.142 1075.1 252.536C1080.75 248.229 1086.73 244.585 1088.05 244.585C1092.37 244.585 1068.46 268.105 1061.16 271.086C1055.85 273.405 1055.52 274.067 1060.16 274.067C1063.15 274.399 1066.14 276.717 1066.8 279.367C1067.8 283.674 1069.79 283.343 1080.75 277.38C1091.37 271.749 1095.36 271.086 1101.67 274.067C1112.62 279.036 1122.58 278.705 1122.58 273.074C1122.58 270.755 1115.94 263.136 1107.64 256.511C1091.04 242.929 1088.05 235.973 1101 241.935C1107.31 244.917 1110.3 244.917 1113.29 241.935C1115.61 239.617 1120.26 237.96 1124.24 237.96C1133.21 237.96 1152.46 226.035 1152.46 220.404C1152.46 217.754 1155.45 213.116 1159.1 209.803C1163.75 205.497 1164.75 202.516 1162.42 200.197C1155.45 193.24 1159.77 191.584 1186.66 191.584C1208.57 191.915 1215.21 192.909 1221.52 198.209C1230.82 206.159 1228.49 211.46 1215.55 211.46C1205.59 211.46 1194.3 219.741 1197.29 225.041C1200.61 230.01 1213.22 228.354 1220.19 221.729C1230.49 212.122 1240.12 211.46 1241.44 220.404C1242.44 226.366 1239.45 229.347 1227.5 235.31C1217.21 240.279 1212.23 244.585 1212.23 248.892C1212.23 254.854 1210.57 255.186 1192.31 253.529C1176.7 252.204 1170.72 252.867 1165.41 257.504C1159.44 262.473 1159.1 263.467 1163.42 267.111C1167.4 270.423 1171.06 270.092 1182.01 265.786C1195.29 260.486 1196.29 260.486 1202.6 266.448C1206.58 270.092 1211.56 276.717 1213.89 281.355C1217.54 287.98 1223.85 291.293 1241.78 296.593C1267.67 304.212 1270.99 302.224 1258.38 286.324C1249.74 275.392 1254.72 275.392 1270.99 285.993C1282.94 294.274 1283.28 294.274 1285.6 287.98C1286.93 284.668 1290.91 280.03 1293.9 278.374C1300.21 275.061 1300.21 274.73 1283.61 252.536C1281.28 249.223 1282.28 246.242 1286.26 242.267C1291.91 236.635 1292.57 236.635 1301.21 247.235C1310.83 258.498 1319.8 261.148 1323.12 252.867C1324.11 250.217 1328.1 247.898 1331.75 247.898C1335.73 247.898 1341.71 245.248 1345.36 241.604C1352 235.641 1352 235.641 1339.72 225.041C1332.08 218.416 1325.11 214.772 1321.46 215.766C1312.16 218.085 1306.52 209.472 1313.16 203.178C1316.15 200.197 1318.47 195.891 1318.47 193.572C1318.47 187.94 1307.51 178.334 1301.21 178.334C1298.22 178.334 1295.23 176.015 1293.9 173.365C1292.91 170.715 1288.59 168.396 1283.94 168.396C1278.96 168.396 1272.65 164.421 1266.68 157.796C1258.38 147.527 1256.05 146.864 1230.82 144.877C1201.93 142.558 1180.02 146.864 1168.73 157.133C1163.42 162.102 1162.42 162.102 1162.42 157.796C1162.42 154.815 1165.74 150.177 1170.06 147.527C1177.03 142.227 1177.36 142.227 1170.39 142.227C1158.11 141.895 1134.54 151.833 1121.92 162.765C1111.96 171.709 1110.3 174.69 1112.95 180.653C1114.95 186.284 1118.27 188.272 1126.23 188.272C1134.2 188.272 1136.2 189.265 1134.54 193.572C1133.54 196.553 1132.54 199.203 1132.54 199.866C1132.54 202.184 1100.01 224.047 1093.37 226.035C1084.4 229.016 1083.07 220.072 1091.37 215.435C1098.68 211.46 1096.02 200.197 1087.06 198.872C1081.41 197.878 1079.75 195.228 1078.76 182.309C1076.77 163.096 1079.42 159.452 1097.02 156.802C1104.65 155.477 1116.94 150.839 1124.24 146.533L1137.52 138.583H1113.62C1091.37 138.583 1089.38 139.245 1081.41 148.521Z" fill="url(#paint9_linear_105_36)"/>
<path d="M1738.8 244.253L1729.5 250.547L1736.81 254.522C1740.79 256.51 1746.1 257.503 1748.76 256.51C1751.75 255.516 1753.41 256.841 1753.41 260.816C1753.41 264.129 1757.06 268.766 1761.71 271.085C1766.35 273.404 1770.01 277.048 1770.01 278.704C1770.01 282.348 1791.92 279.035 1816.16 271.748C1837.4 265.122 1845.04 254.522 1834.42 246.241C1831.1 243.591 1824.46 241.934 1819.81 242.928C1788.93 248.228 1766.35 248.56 1758.39 243.259C1748.43 236.965 1750.42 236.634 1738.8 244.253Z" fill="url(#paint10_linear_105_36)"/>
<path d="M1945.97 345.62C1943.65 348.601 1939.66 350.257 1937.01 349.263C1934.35 348.27 1927.71 350.588 1922.07 354.895C1909.78 363.839 1904.47 376.095 1909.78 382.389C1912.77 386.033 1912.44 387.027 1909.12 387.027C1906.13 387.358 1907.13 389.677 1912.11 393.321C1916.09 396.964 1919.41 401.271 1919.41 403.258C1919.41 405.246 1923.06 406.902 1927.38 406.902C1933.36 406.902 1936.34 409.552 1938.67 416.509C1941.99 425.453 1941.32 426.115 1932.36 428.103C1923.4 429.759 1918.42 436.715 1926.05 436.715C1932.69 436.715 1929.04 442.678 1921.07 444.666C1910.45 447.316 1910.45 453.278 1920.74 453.278C1925.39 453.278 1930.04 454.603 1931.03 456.591C1932.03 458.247 1931.03 459.903 1928.38 459.903C1924.06 459.903 1909.45 473.154 1909.45 477.129C1909.45 480.11 1929.04 474.148 1934.35 469.841C1936.68 467.854 1948.96 466.86 1961.58 467.191C1986.48 467.854 1994.11 465.204 1991.13 457.585C1990.13 454.935 1991.46 450.628 1994.11 447.647C2001.09 441.022 1998.76 435.39 1988.8 433.403C1984.49 432.409 1980.5 429.759 1979.84 427.109C1978.51 420.815 1959.25 392.989 1952.95 388.021C1948.3 384.708 1948.3 383.714 1953.61 378.083C1961.58 369.139 1960.58 363.839 1951.29 363.839C1941.66 363.839 1937.01 358.87 1943.98 356.22C1949.63 353.901 1957.59 340.651 1953.28 340.651C1951.62 340.651 1948.3 342.969 1945.97 345.62Z" fill="url(#paint11_linear_105_36)"/>
<path d="M1878.91 405.578C1876.25 411.541 1873.26 413.528 1868.62 412.203C1859.98 410.216 1855 423.466 1862.31 429.428C1867.29 433.072 1866.96 434.066 1860.32 438.704C1842.39 451.292 1857.99 458.91 1883.22 449.966C1902.15 443.673 1906.13 439.366 1906.13 426.116C1906.13 421.147 1907.79 416.178 1909.45 415.184C1916.76 410.547 1912.77 400.94 1902.48 398.953C1885.88 395.64 1882.89 396.634 1878.91 405.578Z" fill="url(#paint12_linear_105_36)"/>
<path d="M3601.39 873.642C3594.42 886.893 3594.75 896.83 3602.72 908.424L3609.03 918.362L3612.35 909.418C3618.65 893.518 3619.32 885.899 3616.66 875.961C3613.01 862.38 3607.37 861.717 3601.39 873.642Z" fill="url(#paint13_linear_105_36)"/>
<path d="M813.147 907.103C807.835 911.078 803.851 917.04 803.851 920.684C803.851 929.297 808.831 928.634 816.135 919.359C826.095 906.771 829.416 906.44 851.328 914.059C875.233 922.341 883.534 928.634 883.534 938.241C883.534 951.823 887.518 953.479 911.091 951.16C923.375 950.166 935.992 947.516 938.98 945.197C943.96 941.553 942.964 940.56 932.672 937.247C926.363 935.26 916.735 928.966 911.755 923.666C900.134 911.74 878.885 904.784 846.016 902.134C825.099 900.478 821.115 901.14 813.147 907.103Z" fill="url(#paint14_linear_105_36)"/>
<path d="M958.235 954.141C960.559 964.41 956.907 969.378 945.287 970.703C928.686 972.36 930.678 979.979 947.943 979.979C956.243 979.979 963.215 981.304 963.215 983.291C963.215 988.591 973.84 986.935 978.156 980.972C980.812 977.66 988.78 975.01 1001.06 974.016C1011.36 973.354 1019.66 971.366 1019.66 969.71C1019.66 968.385 1014.68 963.416 1008.7 958.778C1001.06 952.816 994.092 950.497 984.796 950.828C977.492 951.159 968.195 950.166 963.879 948.841C957.239 946.522 956.575 947.184 958.235 954.141Z" fill="url(#paint15_linear_105_36)"/>
<path d="M3463.94 949.17C3459.95 949.832 3454.97 953.476 3453.31 956.789C3445.01 972.689 3465.26 980.308 3475.23 965.07C3480.21 957.12 3479.87 946.189 3474.23 947.182C3472.9 947.514 3468.25 948.507 3463.94 949.17Z" fill="url(#paint16_linear_105_36)"/>
<path d="M3625.29 967.059C3621.64 969.047 3619.32 974.347 3619.32 980.972C3619.32 986.935 3616.99 995.879 3614.34 1000.85C3608.36 1012.44 3611.35 1028.67 3619.98 1033.31C3624.63 1035.63 3625.96 1038.94 3624.63 1043.91C3623.63 1048.22 3625.63 1054.18 3629.28 1058.49C3637.25 1068.42 3639.24 1068.09 3639.24 1056.17C3639.24 1046.56 3639.57 1046.56 3648.2 1050.54C3653.18 1052.52 3662.81 1060.47 3669.45 1067.76C3680.08 1079.02 3681.07 1081.34 3676.76 1083.99C3673.44 1085.98 3668.45 1084.99 3662.48 1081.34C3657.17 1078.36 3652.19 1076.04 3651.19 1076.04C3646.54 1076.04 3649.53 1092.94 3655.17 1098.57C3658.49 1101.88 3662.15 1107.18 3663.47 1110.16C3665.8 1116.13 3671.44 1117.12 3680.41 1113.81C3687.38 1111.16 3687.05 1106.19 3680.08 1098.57C3675.1 1092.94 3675.1 1091.94 3679.08 1089.29C3686.72 1084.32 3689.7 1086.97 3694.35 1102.87C3698.67 1116.46 3698.34 1117.78 3691.7 1122.75C3688.04 1125.73 3682.07 1127.39 3678.75 1126.73C3671.44 1124.74 3660.82 1135.34 3657.83 1147.59C3655.84 1156.54 3656.17 1156.87 3660.82 1150.91C3663.47 1147.26 3669.12 1144.28 3673.77 1143.62C3680.41 1142.96 3682.07 1144.61 3683.73 1153.89C3685.06 1161.18 3689.7 1167.8 3695.68 1172.11L3705.64 1179.06V1167.14C3705.64 1157.53 3706.97 1155.55 3711.62 1156.21C3715.27 1156.87 3716.93 1155.55 3715.93 1152.23C3715.6 1149.58 3714.6 1139.64 3714.27 1130.04C3713.94 1117.45 3711.95 1110.83 3706.3 1104.86C3702.32 1100.56 3699 1092.94 3699 1087.97C3699 1074.72 3693.69 1066.77 3682.4 1064.45C3673.77 1062.46 3672.77 1061.14 3674.43 1053.19C3676.09 1045.24 3675.1 1043.58 3666.79 1040.27C3661.81 1038.28 3653.85 1036.29 3649.2 1035.63C3642.23 1034.64 3640.9 1032.65 3639.9 1022.38C3639.24 1015.75 3640.23 1007.14 3642.23 1003.83C3644.55 999.522 3644.55 993.229 3642.23 984.616C3637.58 967.722 3632.6 962.753 3625.29 967.059Z" fill="url(#paint17_linear_105_36)"/>
<path d="M3578.48 1162.17C3575.16 1169.13 3567.52 1178.07 3561.22 1182.05C3555.24 1185.69 3545.94 1193.64 3540.63 1199.6C3535.32 1205.57 3527.35 1211.86 3522.37 1214.18C3517.39 1216.5 3511.08 1222.79 3508.09 1228.75C3503.11 1238.03 3501.45 1239.02 3490.83 1237.37C3481.86 1235.71 3479.54 1236.37 3481.2 1240.02C3482.2 1242.67 3481.53 1245.65 3479.87 1246.64C3474.56 1249.95 3476.22 1265.85 3483.19 1277.45C3486.84 1283.41 3489.83 1293.35 3489.83 1299.31C3489.83 1313.56 3497.14 1319.19 3513.07 1318.52C3520.05 1317.86 3531.33 1319.85 3538.31 1322.83C3552.58 1328.79 3563.87 1329.12 3573.5 1324.16C3578.81 1321.17 3579.81 1318.52 3578.15 1309.58C3576.16 1300.31 3577.48 1296.99 3586.12 1288.05C3593.42 1280.76 3596.08 1274.8 3596.08 1266.52C3596.08 1256.91 3597.4 1254.59 3604.38 1252.94C3614.34 1250.62 3614.67 1248.3 3606.04 1237.37C3597.07 1226.1 3597.74 1212.52 3607.7 1197.95C3612.34 1191.32 3616 1183.7 3616 1181.38C3616 1177.41 3589.77 1148.92 3586.12 1148.92C3585.12 1148.92 3581.8 1154.88 3578.48 1162.17Z" fill="url(#paint18_linear_105_36)"/>
<path d="M3282.65 1177.74C3278.34 1182.04 3280.99 1187.34 3290.29 1192.64C3295.93 1195.63 3303.9 1203.91 3308.55 1211.2C3313.2 1218.48 3319.84 1225.44 3323.49 1226.76C3327.14 1227.76 3332.46 1232.73 3335.11 1237.7C3348.06 1262.54 3358.02 1285.07 3363.67 1302.29C3370.31 1323.16 3388.9 1343.7 3410.15 1352.97C3421.1 1357.94 3421.77 1357.94 3427.74 1350.66C3431.4 1346.35 3433.06 1340.39 3432.06 1336.08C3431.06 1332.1 3433.06 1323.49 3436.71 1316.87L3443.35 1304.61H3435.05C3430.4 1304.61 3426.75 1302.95 3426.75 1301.3C3426.75 1299.31 3420.44 1292.02 3413.14 1284.73C3402.51 1274.47 3400.19 1270.49 3402.84 1267.18C3405.83 1263.87 3403.51 1260.22 3392.55 1251.28C3384.91 1244.98 3372.96 1236.37 3366.32 1232.06C3359.35 1228.09 3351.05 1220.14 3348.06 1214.51C3343.74 1207.55 3333.12 1200.26 3313.53 1189.99C3297.6 1182.38 3283.98 1176.74 3282.65 1177.74Z" fill="url(#paint19_linear_105_36)"/>
<path d="M3690.7 1242C3682.73 1246.64 3677.42 1247.3 3664.14 1244.98C3637.58 1240.35 3633.92 1241.01 3629.94 1249.95C3627.61 1254.59 3625.95 1262.21 3625.95 1266.52C3625.95 1270.82 3622.97 1281.09 3619.31 1289.37C3614.33 1301.63 3613.67 1306.6 3616.33 1313.88C3618.32 1318.85 3619.98 1329.79 3619.65 1338.4C3619.31 1354.63 3622.3 1357.61 3632.59 1350.99C3636.25 1348.67 3637.24 1342.7 3636.91 1327.8C3636.25 1308.92 3639.24 1302.95 3644.88 1311.9C3646.21 1314.22 3647.54 1317.53 3647.54 1319.52C3648.53 1329.12 3654.18 1343.04 3658.82 1346.35C3671.77 1356.29 3677.08 1337.74 3666.79 1317.2C3663.8 1311.23 3660.15 1303.62 3658.49 1300.3C3656.17 1295.67 3657.5 1292.68 3663.8 1287.72C3668.78 1284.07 3672.44 1279.43 3672.44 1277.78C3672.44 1273.47 3656.83 1274.13 3648.86 1278.77C3643.22 1282.42 3641.56 1282.08 3637.24 1276.45C3625.95 1261.21 3638.57 1246.97 3656.5 1254.92C3679.74 1264.86 3704.31 1258.23 3701.65 1242.66C3700.66 1236.37 3700.33 1236.37 3690.7 1242Z" fill="url(#paint20_linear_105_36)"/>
<path d="M3783 1273.8C3778.68 1274.47 3775.36 1276.45 3775.36 1277.78C3775.36 1281.42 3786.65 1291.36 3790.97 1291.36C3795.61 1291.36 3806.9 1304.28 3804.25 1306.6C3800.26 1310.57 3811.88 1327.8 3817.86 1326.8C3825.5 1325.81 3868.66 1340.72 3875.63 1346.68C3883.93 1353.97 3887.25 1377.49 3880.28 1381.46C3872.31 1386.1 3873.97 1390.74 3883.27 1390.74C3887.91 1390.74 3899.2 1394.38 3908.17 1399.02C3931.08 1410.61 3938.71 1409.62 3954.98 1394.05C3962.62 1386.76 3969.92 1380.8 3971.58 1380.8C3972.91 1380.8 3981.21 1389.08 3989.84 1399.02C4001.46 1412.6 4009.76 1418.56 4021.71 1422.54C4030.35 1425.19 4039.31 1427.18 4041.64 1426.51C4043.63 1425.85 4036.32 1415.91 4025.37 1404.32C4003.12 1381.79 3997.48 1370.86 4008.1 1370.86C4011.42 1370.86 4014.41 1368.87 4014.41 1366.22C4014.41 1359.93 3998.81 1347.67 3990.84 1347.67C3986.85 1347.67 3984.53 1345.35 3984.53 1341.38C3984.53 1337.74 3979.55 1331.11 3973.9 1326.8C3952.99 1311.24 3893.23 1284.73 3878.95 1284.73C3876.29 1284.73 3867.99 1291.69 3860.02 1300.3L3845.75 1315.54L3833.8 1302.62C3824.17 1292.35 3822.18 1288.05 3823.84 1280.43C3825.83 1271.48 3825.5 1271.48 3807.9 1271.82C3798.27 1272.15 3786.98 1273.14 3783 1273.8Z" fill="url(#paint21_linear_105_36)"/>
<path d="M3438.37 1356.62C3422.43 1360.59 3418.45 1370.86 3433.05 1370.86C3438.7 1370.86 3447.33 1374.51 3453.31 1379.48C3461.61 1386.43 3469.91 1389.08 3497.47 1393.06C3516.06 1395.71 3537.31 1400.01 3544.28 1402.33C3555.24 1406.31 3559.55 1406.31 3570.51 1402.33C3580.47 1399.02 3585.78 1398.69 3590.43 1401.34C3594.08 1403 3605.37 1403.99 3615.66 1403.33C3625.95 1402.33 3638.57 1403 3644.22 1404.32C3649.86 1405.98 3658.49 1405.98 3664.14 1404.32C3669.45 1402.66 3680.07 1400.35 3687.38 1399.02L3700.66 1397.03L3687.38 1405.98C3680.07 1410.95 3673.76 1415.25 3673.76 1415.25C3673.43 1415.58 3672.1 1419.23 3670.78 1423.53C3668.78 1430.49 3670.78 1429.5 3686.38 1416.25C3696.34 1407.96 3708.63 1399.35 3713.94 1397.36C3722.9 1394.05 3723.23 1393.06 3717.92 1390.41C3713.94 1388.09 3706.3 1388.42 3694.02 1391.07C3680.41 1394.05 3673.76 1394.05 3667.46 1391.4C3661.15 1388.42 3656.83 1388.75 3648.53 1392.06C3639.9 1395.71 3633.59 1396.04 3619.31 1393.39C3609.35 1391.4 3592.09 1389.41 3581.13 1389.08C3544.61 1388.09 3522.7 1381.13 3537.97 1375.5C3546.6 1372.19 3539.63 1367.55 3526.02 1367.55C3518.71 1367.55 3509.09 1365.23 3504.44 1361.92C3496.47 1356.95 3496.14 1356.95 3494.15 1363.58C3491.49 1374.18 3472.23 1373.51 3459.28 1362.58C3453.97 1357.94 3448.33 1354.63 3447.33 1354.63C3446 1354.96 3442.02 1355.96 3438.37 1356.62Z" fill="url(#paint22_linear_105_36)"/>
<path d="M3789.64 1443.74C3791.63 1452.35 3790.64 1453.68 3782.67 1455.33C3777.69 1456.66 3771.38 1458.65 3768.72 1459.97C3762.41 1463.28 3748.8 1487.13 3750.79 1490.78C3751.79 1492.1 3752.12 1493.43 3751.46 1493.43C3750.79 1493.43 3745.48 1494.75 3739.51 1496.41C3729.55 1499.39 3728.22 1498.73 3724.9 1491.44C3717.59 1475.87 3697.34 1477.86 3695.02 1494.42C3694.35 1499.72 3692.03 1501.38 3686.72 1500.72C3682.4 1500.05 3679.08 1501.38 3679.08 1503.37C3679.08 1505.35 3673.77 1511.98 3667.46 1518.6C3658.16 1527.88 3655.51 1529.2 3653.85 1524.9C3652.19 1520.59 3650.86 1520.92 3645.55 1526.89C3641.89 1530.86 3639.24 1536.82 3639.24 1540.14C3639.24 1553.39 3619.98 1568.62 3590.76 1579.22C3575.16 1584.86 3560.22 1589.49 3557.56 1589.49C3554.58 1589.49 3545.61 1594.46 3536.98 1600.09C3528.35 1606.06 3519.05 1611.02 3516.39 1611.02C3513.07 1611.02 3511.08 1615.33 3510.42 1624.94C3509.75 1632.56 3507.43 1640.51 3504.77 1642.49C3501.79 1645.14 3500.79 1649.78 3502.12 1656.08C3503.44 1663.36 3502.45 1667.01 3498.13 1670.32C3493.15 1673.96 3492.82 1675.62 3496.47 1681.91C3498.8 1686.55 3500.46 1705.1 3500.79 1728.29C3501.45 1759.76 3500.46 1769.37 3495.14 1780.96C3491.82 1788.58 3486.84 1794.87 3484.19 1794.87C3475.89 1794.87 3479.54 1807.79 3489.83 1813.09C3503.45 1820.05 3509.75 1819.39 3530.67 1808.12C3546.61 1799.84 3553.25 1798.19 3572.84 1798.19C3585.78 1798.19 3596.08 1796.86 3596.08 1794.87C3596.08 1784.27 3663.14 1763.4 3696.34 1764.07C3725.23 1764.4 3753.45 1785.93 3746.81 1802.82C3743.16 1812.1 3755.11 1813.42 3763.08 1804.15C3772.04 1793.88 3788.64 1783.61 3788.64 1788.25C3788.64 1789.9 3784.33 1795.54 3778.68 1800.5C3766.73 1811.1 3765.4 1817.73 3777.02 1810.11C3787.32 1803.15 3788.31 1803.49 3786.32 1811.44C3785.32 1815.08 3778.68 1820.38 3771.71 1823.69C3758.1 1829.66 3755.77 1832.64 3763.41 1835.62C3766.07 1836.61 3771.38 1833.96 3775.7 1829.32C3786.32 1818.06 3789.64 1819.39 3787.65 1834.29C3785.32 1852.18 3794.29 1866.09 3810.89 1870.73C3828.15 1875.7 3836.79 1875.37 3841.77 1869.41C3847.08 1863.11 3851.73 1863.11 3851.73 1869.07C3851.73 1871.39 3853.72 1875.37 3856.04 1877.36C3859.69 1880.01 3864.01 1878.35 3875.3 1869.74C3883.93 1863.11 3895.22 1857.81 3902.86 1856.82C3909.83 1855.82 3916.47 1853.84 3917.8 1852.18C3928.42 1835.95 3975.9 1781.95 3982.21 1778.64C3995.82 1771.35 4017.73 1730.28 4027.69 1693.84L4036.66 1660.38L4027.36 1647.46C4022.38 1640.18 4017.07 1630.24 4016.07 1625.27C4014.74 1619.97 4010.76 1614.01 4007.11 1611.36C4003.12 1608.37 4000.14 1602.08 3999.47 1595.46C3998.81 1588.5 3994.16 1579.56 3986.19 1570.28C3973.24 1555.37 3964.61 1533.18 3964.61 1514.63C3964.61 1497.4 3958.97 1486.14 3951.66 1488.46C3946.35 1490.12 3945.02 1488.13 3943.03 1476.2C3934.07 1419.89 3926.76 1420.22 3916.8 1478.52C3911.16 1510.99 3897.21 1539.8 3887.58 1539.8C3880.61 1539.8 3864.67 1530.53 3860.69 1524.24C3859.36 1521.92 3851.73 1513.97 3843.43 1506.35L3829.15 1492.77L3838.78 1478.19C3844.42 1470.24 3850.07 1462.95 3852.06 1461.96C3855.71 1459.31 3855.71 1456.66 3852.06 1450.7C3849.73 1447.05 3847.08 1447.05 3837.78 1450.36C3827.82 1454.01 3824.83 1453.68 3812.88 1447.38C3805.24 1443.74 3798.27 1439.1 3796.94 1437.11C3792.3 1429.83 3787.98 1434.13 3789.64 1443.74Z" fill="url(#paint23_linear_105_36)"/>
<path d="M2636.23 1462.62C2631.25 1467.92 2622.95 1478.85 2617.3 1487.13C2609.67 1498.73 2602.36 1504.36 2588.75 1510.32C2566.17 1519.93 2557.87 1534.17 2563.52 1553.05C2568.83 1570.94 2567.5 1582.87 2558.87 1597.44C2553.89 1606.06 2550.57 1617.32 2550.24 1627.59C2548.91 1651.11 2549.24 1651.77 2558.87 1660.71C2578.46 1678.93 2602.03 1666.01 2611.33 1631.89C2619.96 1599.43 2629.59 1566.64 2637.22 1543.78C2640.88 1532.52 2642.87 1520.59 2641.87 1517.94C2640.54 1514.3 2642.2 1511.98 2646.52 1510.98C2652.16 1509.33 2653.16 1506.35 2653.16 1488.79C2652.83 1477.86 2651.17 1465.27 2648.84 1460.96L2644.53 1453.68L2636.23 1462.62Z" fill="url(#paint24_linear_105_36)"/>
<path d="M4238.85 1820.71C4237.86 1827.34 4236.86 1836.94 4236.86 1841.91C4236.86 1856.16 4226.9 1873.71 4216.28 1878.02C4207.64 1881.66 4207.31 1882.33 4211.96 1887.63C4218.93 1895.24 4218.27 1899.55 4209.64 1905.51C4200.34 1912.14 4197.02 1912.14 4197.02 1905.84C4197.02 1901.54 4195.69 1901.21 4190.05 1904.19C4186.39 1906.18 4181.75 1907.17 4179.42 1906.51C4177.1 1905.84 4169.46 1909.82 4162.16 1915.45C4154.85 1921.41 4138.92 1931.35 4126.96 1937.98C4115.01 1944.6 4091.44 1958.18 4074.51 1968.78L4043.63 1987.67L4053.92 1993.96C4064.21 2000.25 4064.55 2000.25 4076.83 1993.96C4083.8 1990.32 4098.08 1981.04 4109.04 1972.76C4119.99 1964.81 4133.6 1956.86 4139.58 1955.86C4145.89 1954.21 4151.2 1950.9 4152.2 1946.92C4153.53 1943.61 4159.17 1938.31 4164.81 1935.33C4170.79 1932.35 4178.76 1927.04 4182.74 1923.4C4187.06 1919.43 4195.36 1916.44 4202.66 1916.11C4217.27 1915.45 4245.16 1898.23 4248.48 1887.63C4249.48 1883.98 4253.46 1881 4256.78 1881C4263.09 1881 4283.34 1863.11 4283.34 1857.15C4283.34 1855.16 4280.69 1854.83 4277.7 1856.16C4266.74 1860.46 4261.76 1859.47 4258.44 1851.85C4256.78 1847.87 4254.13 1844.56 4252.47 1844.56C4250.81 1844.56 4250.81 1837.94 4251.8 1829.99C4253.79 1817.4 4253.13 1814.75 4247.49 1811.77C4241.84 1808.79 4240.85 1809.78 4238.85 1820.71Z" fill="url(#paint25_linear_105_36)"/>
<path d="M3815.54 1919.09C3806.9 1946.59 3806.9 1946.59 3816.2 1947.91C3828.82 1950.23 3847.08 1937.64 3856.71 1920.42L3865.34 1904.19L3850.06 1906.18C3838.44 1907.83 3833.46 1907.17 3828.82 1902.53C3822.51 1897.23 3822.18 1897.56 3815.54 1919.09Z" fill="url(#paint26_linear_105_36)"/>
<defs>
<linearGradient id="paint0_linear_105_36" x1="2162.17" y1="33" x2="2162.17" y2="2131.76" gradientUnits="userSpaceOnUse">
<stop stop-color="#0F3443"/>
<stop offset="1" stop-color="#34E89E"/>
</linearGradient>
<linearGradient id="paint1_linear_105_36" x1="2162.17" y1="33" x2="2162.17" y2="2131.76" gradientUnits="userSpaceOnUse">
<stop stop-color="#0F3443"/>
<stop offset="1" stop-color="#34E89E"/>
</linearGradient>
<linearGradient id="paint2_linear_105_36" x1="2162.17" y1="33" x2="2162.17" y2="2131.76" gradientUnits="userSpaceOnUse">
<stop stop-color="#0F3443"/>
<stop offset="1" stop-color="#34E89E"/>
</linearGradient>
<linearGradient id="paint3_linear_105_36" x1="2162.17" y1="33" x2="2162.17" y2="2131.76" gradientUnits="userSpaceOnUse">
<stop stop-color="#0F3443"/>
<stop offset="1" stop-color="#34E89E"/>
</linearGradient>
<linearGradient id="paint4_linear_105_36" x1="2162.17" y1="33" x2="2162.17" y2="2131.76" gradientUnits="userSpaceOnUse">
<stop stop-color="#0F3443"/>
<stop offset="1" stop-color="#34E89E"/>
</linearGradient>
<linearGradient id="paint5_linear_105_36" x1="2162.17" y1="33" x2="2162.17" y2="2131.76" gradientUnits="userSpaceOnUse">
<stop stop-color="#0F3443"/>
<stop offset="1" stop-color="#34E89E"/>
</linearGradient>
<linearGradient id="paint6_linear_105_36" x1="2162.17" y1="33" x2="2162.17" y2="2131.76" gradientUnits="userSpaceOnUse">
<stop stop-color="#0F3443"/>
<stop offset="1" stop-color="#34E89E"/>
</linearGradient>
<linearGradient id="paint7_linear_105_36" x1="2162.17" y1="33" x2="2162.17" y2="2131.76" gradientUnits="userSpaceOnUse">
<stop stop-color="#0F3443"/>
<stop offset="1" stop-color="#34E89E"/>
</linearGradient>
<linearGradient id="paint8_linear_105_36" x1="2162.17" y1="33" x2="2162.17" y2="2131.76" gradientUnits="userSpaceOnUse">
<stop stop-color="#0F3443"/>
<stop offset="1" stop-color="#34E89E"/>
</linearGradient>
<linearGradient id="paint9_linear_105_36" x1="2162.17" y1="33" x2="2162.17" y2="2131.76" gradientUnits="userSpaceOnUse">
<stop stop-color="#0F3443"/>
<stop offset="1" stop-color="#34E89E"/>
</linearGradient>
<linearGradient id="paint10_linear_105_36" x1="2162.17" y1="33" x2="2162.17" y2="2131.76" gradientUnits="userSpaceOnUse">
<stop stop-color="#0F3443"/>
<stop offset="1" stop-color="#34E89E"/>
</linearGradient>
<linearGradient id="paint11_linear_105_36" x1="2162.17" y1="33" x2="2162.17" y2="2131.76" gradientUnits="userSpaceOnUse">
<stop stop-color="#0F3443"/>
<stop offset="1" stop-color="#34E89E"/>
</linearGradient>
<linearGradient id="paint12_linear_105_36" x1="2162.17" y1="33" x2="2162.17" y2="2131.76" gradientUnits="userSpaceOnUse">
<stop stop-color="#0F3443"/>
<stop offset="1" stop-color="#34E89E"/>
</linearGradient>
<linearGradient id="paint13_linear_105_36" x1="2162.17" y1="33" x2="2162.17" y2="2131.76" gradientUnits="userSpaceOnUse">
<stop stop-color="#0F3443"/>
<stop offset="1" stop-color="#34E89E"/>
</linearGradient>
<linearGradient id="paint14_linear_105_36" x1="2162.17" y1="33" x2="2162.17" y2="2131.76" gradientUnits="userSpaceOnUse">
<stop stop-color="#0F3443"/>
<stop offset="1" stop-color="#34E89E"/>
</linearGradient>
<linearGradient id="paint15_linear_105_36" x1="2162.17" y1="33" x2="2162.17" y2="2131.76" gradientUnits="userSpaceOnUse">
<stop stop-color="#0F3443"/>
<stop offset="1" stop-color="#34E89E"/>
</linearGradient>
<linearGradient id="paint16_linear_105_36" x1="2162.17" y1="33" x2="2162.17" y2="2131.76" gradientUnits="userSpaceOnUse">
<stop stop-color="#0F3443"/>
<stop offset="1" stop-color="#34E89E"/>
</linearGradient>
<linearGradient id="paint17_linear_105_36" x1="2162.17" y1="33" x2="2162.17" y2="2131.76" gradientUnits="userSpaceOnUse">
<stop stop-color="#0F3443"/>
<stop offset="1" stop-color="#34E89E"/>
</linearGradient>
<linearGradient id="paint18_linear_105_36" x1="2162.17" y1="33" x2="2162.17" y2="2131.76" gradientUnits="userSpaceOnUse">
<stop stop-color="#0F3443"/>
<stop offset="1" stop-color="#34E89E"/>
</linearGradient>
<linearGradient id="paint19_linear_105_36" x1="2162.17" y1="33" x2="2162.17" y2="2131.76" gradientUnits="userSpaceOnUse">
<stop stop-color="#0F3443"/>
<stop offset="1" stop-color="#34E89E"/>
</linearGradient>
<linearGradient id="paint20_linear_105_36" x1="2162.17" y1="33" x2="2162.17" y2="2131.76" gradientUnits="userSpaceOnUse">
<stop stop-color="#0F3443"/>
<stop offset="1" stop-color="#34E89E"/>
</linearGradient>
<linearGradient id="paint21_linear_105_36" x1="2162.17" y1="33" x2="2162.17" y2="2131.76" gradientUnits="userSpaceOnUse">
<stop stop-color="#0F3443"/>
<stop offset="1" stop-color="#34E89E"/>
</linearGradient>
<linearGradient id="paint22_linear_105_36" x1="2162.17" y1="33" x2="2162.17" y2="2131.76" gradientUnits="userSpaceOnUse">
<stop stop-color="#0F3443"/>
<stop offset="1" stop-color="#34E89E"/>
</linearGradient>
<linearGradient id="paint23_linear_105_36" x1="2162.17" y1="33" x2="2162.17" y2="2131.76" gradientUnits="userSpaceOnUse">
<stop stop-color="#0F3443"/>
<stop offset="1" stop-color="#34E89E"/>
</linearGradient>
<linearGradient id="paint24_linear_105_36" x1="2162.17" y1="33" x2="2162.17" y2="2131.76" gradientUnits="userSpaceOnUse">
<stop stop-color="#0F3443"/>
<stop offset="1" stop-color="#34E89E"/>
</linearGradient>
<linearGradient id="paint25_linear_105_36" x1="2162.17" y1="33" x2="2162.17" y2="2131.76" gradientUnits="userSpaceOnUse">
<stop stop-color="#0F3443"/>
<stop offset="1" stop-color="#34E89E"/>
</linearGradient>
<linearGradient id="paint26_linear_105_36" x1="2162.17" y1="33" x2="2162.17" y2="2131.76" gradientUnits="userSpaceOnUse">
<stop stop-color="#0F3443"/>
<stop offset="1" stop-color="#34E89E"/>
</linearGradient>
</defs>
</svg>
